Coordinates
version=1
nRows=5
nColumns=40
inDegrees=yes

Units are S.I. units (second, meters, Newtons, ...)
Angles are in degrees.

endheader
time	pelvis_tilt	pelvis_list	pelvis_rotation	pelvis_tx	pelvis_ty	pelvis_tz	hip_flexion_r	hip_adduction_r	hip_rotation_r	knee_angle_r	knee_angle_r_beta	ankle_angle_r	subtalar_angle_r	mtp_angle_r	hip_flexion_l	hip_adduction_l	hip_rotation_l	knee_angle_l	knee_angle_l_beta	ankle_angle_l	subtalar_angle_l	mtp_angle_l	lumbar_extension	lumbar_bending	lumbar_rotation	arm_flex_r	arm_add_r	arm_rot_r	elbow_flex_r	pro_sup_r	wrist_flex_r	wrist_dev_r	arm_flex_l	arm_add_l	arm_rot_l	elbow_flex_l	pro_sup_l	wrist_flex_l	wrist_dev_l
     30.83000000	     -1.19391888	     -3.08471491	      1.27162349	      1.01545123	      0.93162643	      0.41559739	     27.52872233	     -8.76046732	     -5.16762325	     69.21715718	     69.21715718	     -5.33193067	    -15.27908168	     -0.79221222	     12.99470269	     -4.49150958	     -8.60342000	     23.43361669	     23.43361669	     13.49518817	    -11.12410605	     -1.20068860	     -9.85830029	      4.33381740	      1.25916612	      5.90613467	    -13.97253352	    -10.73417150	     27.20848779	     46.31117223	      0.00000000	      0.00000000	     11.15905760	    -16.04785832	      0.30852070	     60.75774617	     46.60873538	      0.00000000	      0.00000000
     30.84371429	     -1.24611552	     -3.32134606	      1.12887162	      1.01408233	      0.93242472	      0.41479408	     28.54390877	     -8.48134314	     -5.29674354	     68.78486122	     68.78486122	     -5.05729971	    -15.56071353	     -0.82504019	     12.41623301	     -4.70837200	     -8.89330804	     22.87860353	     22.87860353	     13.59764515	    -10.70249167	     -1.32391655	     -9.92915953	      4.58085459	      1.09366245	      4.70707364	    -13.82303011	    -10.73238759	     26.51235319	     46.33333187	      0.00000000	      0.00000000	     11.78346102	    -16.11194738	      0.04484791	     61.53235232	     46.64860705	      0.00000000	      0.00000000
     30.85742857	     -1.29783739	     -3.55143545	      0.96247936	      1.01270775	      0.93318056	      0.41402644	     29.48446826	     -8.19351312	     -5.41859546	     68.17641402	     68.17641402	     -4.78301549	    -15.77621988	     -0.78043091	     11.84411088	     -4.92972388	     -9.23138630	     22.34348079	     22.34348079	     13.67249004	    -10.22233609	     -1.57726218	    -10.06194550	      4.84591720	      1.04522751	      3.46603051	    -13.67952901	    -10.72121867	     25.90671997	     46.35180757	      0.00000000	      0.00000000	     12.30042191	    -16.15934667	     -0.38241699	     62.68164346	     46.70793905	      0.00000000	      0.00000000
     30.87114286	     -1.43408621	     -3.79114663	      0.83355071	      1.01129539	      0.93379827	      0.41330646	     30.40532046	     -7.91440333	     -5.62656604	     67.31515336	     67.31515336	     -4.49453038	    -15.93461439	     -0.66758812	     11.37616967	     -5.12688695	     -9.41482743	     21.79707925	     21.79707925	     13.73681275	     -9.90243753	     -1.65671729	    -10.08404715	      5.12974544	      0.79684210	      2.33409915	    -13.50061153	    -10.69910175	     25.48765481	     46.35952797	      0.00000000	      0.00000000	     12.75283549	    -16.28417443	     -0.69505344	     63.41679647	     46.74829747	      0.00000000	      0.00000000
     30.88485714	     -1.46413066	     -3.99288841	      0.62227697	      1.00999998	      0.93441460	      0.41282625	     31.10923426	     -7.58615131	     -5.72516452	     66.16408159	     66.16408159	     -4.14619790	    -16.06651952	     -0.35172939	     10.77720254	     -5.33374800	     -9.81529198	     21.26142491	     21.26142491	     13.81368844	     -9.44548132	     -1.98459325	    -10.26033907	      5.33518276	      0.84211247	      1.12876761	    -13.37246826	    -10.64072208	     25.16597252	     46.36172829	      0.00000000	      0.00000000	     13.19548358	    -16.26129928	     -1.28632091	     64.77800374	     46.82183408	      0.00000000	      0.00000000
